<?xml version="1.0" standalone="no"?>
<!DOCTYPE svg PUBLIC "-//W3C//DTD SVG 20010904//EN"
 "http://www.w3.org/TR/2001/REC-SVG-20010904/DTD/svg10.dtd">
<svg version="1.0" xmlns="http://www.w3.org/2000/svg"
 width="512.000000pt" height="512.000000pt" viewBox="0 0 512.000000 512.000000"
 preserveAspectRatio="xMidYMid meet">

<g transform="translate(0.000000,512.000000) scale(0.100000,-0.100000)"
fill="#000000" stroke="none">
<path d="M0 2880 l0 -1280 2560 0 2560 0 0 1280 0 1280 -2560 0 -2560 0 0
-1280z m1840 904 c0 -47 -6 -66 -40 -124 -79 -131 -142 -309 -177 -495 -24
-125 -24 -445 0 -570 35 -186 98 -364 177 -495 34 -58 40 -77 40 -124 l0 -56
-519 0 -518 0 -6 53 c-21 210 -190 386 -401 419 l-76 13 0 397 0 398 33 0 c65
1 173 31 256 72 121 59 223 162 280 280 41 84 70 191 71 256 l0 32 440 0 440
0 0 -56z m2320 24 c1 -66 31 -175 71 -258 59 -119 163 -222 281 -279 84 -41
191 -70 256 -71 l32 0 0 -398 0 -398 -69 -10 c-206 -33 -372 -198 -404 -403
l-11 -71 -518 0 -518 0 0 56 c0 47 6 66 40 124 79 131 142 309 177 495 24 125
24 445 0 570 -35 186 -98 364 -177 495 -34 58 -40 77 -40 124 l0 56 440 0 440
0 0 -32z m-990 8 c0 -17 -40 -89 -52 -94 -4 -2 -8 -10 -8 -18 0 -8 -5 -14 -10
-14 -6 0 -16 -11 -22 -25 l-11 -25 -154 0 c-87 0 -153 -4 -153 -9 0 -5 6 -16
13 -23 19 -22 37 -56 37 -74 0 -8 7 -22 15 -30 8 -9 15 -24 15 -35 0 -18 9
-19 165 -19 l165 0 0 -28 c0 -16 -9 -38 -20 -50 -11 -12 -20 -26 -20 -32 0 -6
-13 -24 -30 -40 -16 -16 -30 -34 -30 -40 0 -6 -41 -10 -109 -10 l-109 0 -7
-37 c-4 -21 -14 -51 -22 -68 -30 -57 -33 -65 -33 -80 0 -8 -4 -15 -8 -15 -5 0
-18 -19 -30 -42 -11 -24 -31 -50 -43 -58 -12 -8 -36 -27 -52 -42 -17 -16 -36
-28 -43 -28 -8 0 -14 -6 -14 -12 0 -15 -45 -38 -71 -38 -10 0 -24 -6 -31 -12
-29 -28 -131 -57 -200 -58 -53 0 -57 -5 -30 -29 10 -9 31 -38 47 -66 16 -27
44 -65 62 -83 18 -18 33 -39 33 -47 0 -8 4 -15 10 -15 5 0 29 -27 52 -61 66
-92 86 -120 121 -163 55 -67 77 -99 77 -112 0 -7 9 -16 20 -19 11 -3 20 -11
20 -16 0 -12 44 -73 77 -108 13 -13 23 -27 23 -32 0 -4 9 -18 20 -31 60 -70
70 -85 70 -110 l0 -28 -130 0 c-108 0 -133 3 -150 17 -11 10 -20 25 -20 34 0
8 -11 22 -25 29 -14 7 -25 18 -25 24 0 10 -14 29 -70 94 -11 13 -20 26 -20 29
0 5 -52 70 -102 125 -21 23 -38 46 -38 52 0 6 -11 23 -25 38 -14 15 -25 29
-25 32 0 3 -17 22 -39 43 -21 21 -42 48 -46 61 -3 12 -11 22 -16 22 -5 0 -9 6
-9 13 0 7 -20 30 -45 51 -25 22 -45 45 -45 51 0 7 -9 20 -20 30 -11 10 -20 24
-20 31 0 7 -6 19 -13 26 -59 60 -67 82 -67 176 l0 92 131 0 c137 0 293 23 317
47 7 7 17 13 21 13 8 0 71 57 71 64 0 3 14 18 30 34 17 17 30 40 30 51 0 12 4
21 9 21 5 0 12 13 16 30 4 16 11 32 16 35 5 4 9 15 9 26 0 18 -10 19 -350 19
-192 0 -350 3 -350 8 0 31 25 83 45 96 14 9 25 23 25 30 0 7 9 25 21 40 l20
26 270 0 c209 0 269 3 269 13 -1 16 -65 87 -79 87 -6 0 -11 4 -11 8 0 10 -50
35 -100 50 -71 22 -169 32 -313 32 l-148 0 7 38 c3 20 15 43 25 51 10 7 19 18
19 23 0 5 12 25 26 44 l26 34 584 0 c502 0 584 -2 584 -14z"/>
<path d="M860 3184 c-227 -82 -293 -362 -125 -529 65 -66 125 -90 225 -90 100
0 160 24 225 90 66 65 90 125 90 225 0 100 -24 160 -90 225 -82 82 -222 116
-325 79z"/>
<path d="M4060 3184 c-227 -82 -293 -362 -125 -529 65 -66 125 -90 225 -90
100 0 160 24 225 90 66 65 90 125 90 225 0 100 -24 160 -90 225 -82 82 -222
116 -325 79z"/>
<path d="M0 1360 l0 -80 2560 0 2560 0 0 80 0 80 -2560 0 -2560 0 0 -80z"/>
<path d="M0 1040 l0 -80 2560 0 2560 0 0 80 0 80 -2560 0 -2560 0 0 -80z"/>
</g>
</svg>
